<?xml version="1.0" encoding="UTF-8"?>
<svg width="58px" height="54px" viewBox="0 0 58 54" version="1.1" xmlns="http://www.w3.org/2000/svg" xmlns:xlink="http://www.w3.org/1999/xlink">
    <!-- Generator: Sketch 52.4 (67378) - http://www.bohemiancoding.com/sketch -->
    <title>disconnect</title>
    <desc>Created with Sketch.</desc>
    <g id="Page-1" stroke="none" stroke-width="1" fill="none" fill-rule="evenodd">
        <g id="connect" transform="translate(-1600.000000, -224.000000)" fill="#FFFFFF">
            <g id="Group-3" transform="translate(1589.000000, 210.000000)">
                <g id="disconnect" transform="translate(11.000000, 14.000000)">
                    <path d="M19.9757315,29.4950781 L13.7352678,35.66597 C11.8735706,37.5083662 11.8735706,40.4954682 13.7352678,42.3378644 C15.5969651,44.1802606 18.6153602,44.1802606 20.4770574,42.3378644 L26.4724372,36.3968136 C26.6989378,36.1711878 27.0406429,36.1028554 27.3379599,36.2239566 C28.9515673,36.8733906 30.6780528,37.204462 32.4200788,37.1983839 L32.7376822,37.1983839 C33.1762596,37.1958975 33.5338774,37.5456636 33.5363899,37.979694 C33.5375997,38.1907693 33.4530109,38.3935563 33.3015142,38.5421931 L24.9636119,46.7936525 C22.8823003,48.8557806 20.0551372,50.010064 17.110071,49.9999339 C10.9701738,49.996066 5.99609391,45.0672004 6.0000023,38.9909583 C6.00186344,36.0791877 7.17010033,33.2868606 9.24862026,31.2259297 L15.504873,25.02969 C17.1259478,26.7180695 18.616234,28.2065322 19.9757315,29.4950781 Z M43.7280528,27.7399278 C41.9583441,26.1238 40.3794445,24.7249587 38.9913538,23.5434037 L45.2293063,17.3736171 C47.0900307,15.5312465 47.0900307,12.544186 45.2293063,10.7018154 C43.3685819,8.85944482 40.3517642,8.85944482 38.4910398,10.7018154 L32.5146975,16.6113807 C32.2883152,16.8370034 31.9467887,16.9053349 31.6496271,16.7842353 C30.0399322,16.1324159 28.3171391,15.7987706 26.5780696,15.8019017 L26.2844424,15.8019017 C25.9602154,15.8080718 25.664821,15.6182724 25.5384227,15.3225685 C25.4105362,15.0276935 25.4764791,14.6855758 25.7050936,14.4581112 L34.030733,6.22251392 C38.370222,1.92582869 45.4059291,1.92582869 49.7454181,6.22251392 C54.0849071,10.5191992 54.0849071,17.4855076 49.7451391,21.7821928 L43.7280528,27.7399278 Z" id="Combined-Shape"></path>
                    <rect id="Rectangle" x="36" y="44" width="3" height="10" rx="1"></rect>
                    <rect id="Rectangle-Copy-16" transform="translate(20.500000, 5.000000) rotate(-180.000000) translate(-20.500000, -5.000000) " x="19" y="0" width="3" height="10" rx="1"></rect>
                    <rect id="Rectangle-Copy-15" transform="translate(53.000000, 34.500000) rotate(-90.000000) translate(-53.000000, -34.500000) " x="51.5" y="29.5" width="3" height="10" rx="1"></rect>
                    <rect id="Rectangle-Copy-17" transform="translate(5.000000, 19.500000) rotate(-270.000000) translate(-5.000000, -19.500000) " x="3.5" y="14.5" width="3" height="10" rx="1"></rect>
                    <rect id="Rectangle-Copy-14" transform="translate(48.596194, 45.596194) rotate(-45.000000) translate(-48.596194, -45.596194) " x="47.0961941" y="40.5961941" width="3" height="10" rx="1"></rect>
                    <rect id="Rectangle-Copy-18" transform="translate(9.596194, 8.596194) rotate(-225.000000) translate(-9.596194, -8.596194) " x="8.09619408" y="3.59619408" width="3" height="10" rx="1"></rect>
                </g>
            </g>
        </g>
    </g>
</svg>