<?xml version="1.0" encoding="UTF-8" standalone="no"?>
<!DOCTYPE svg PUBLIC "-//W3C//DTD SVG 1.1//EN" "http://www.w3.org/Graphics/SVG/1.1/DTD/svg11.dtd">
<svg version="1.1" xmlns="http://www.w3.org/2000/svg" xmlns:xlink="http://www.w3.org/1999/xlink" preserveAspectRatio="xMidYMid meet" viewBox="270.0462577150914 296.77828779016346 294.3488879827864 208.05982288376555" width="37" height="26"><defs><path d="" id="c3dpjiIOnE"></path><path d="" id="b35U8Bw6dm"></path><path d="M404.89 297.88L406.33 298.01L407.75 298.19L409.15 298.42L410.54 298.69L411.9 299.02L413.24 299.39L414.55 299.8L415.85 300.26L417.11 300.76L418.35 301.3L419.57 301.88L420.75 302.5L421.9 303.16L423.03 303.86L424.12 304.59L425.17 305.36L426.2 306.17L427.18 307.01L428.13 307.88L429.05 308.78L429.92 309.72L430.75 310.68L431.54 311.67L432.29 312.69L432.99 313.74L433.65 314.81L434.26 315.9L434.83 317.02L435.35 318.16L435.82 319.33L436.23 320.51L436.6 321.71L436.91 322.93L437.17 324.17L437.37 325.43L437.52 326.7L437.61 327.98L437.64 329.28L437.63 329.46L438.54 329.54L440.12 329.75L441.68 330L443.21 330.31L444.73 330.68L446.21 331.1L447.67 331.56L449.11 332.08L450.52 332.65L451.89 333.26L453.24 333.92L454.56 334.62L455.84 335.37L457.08 336.16L458.29 336.99L459.47 337.86L460.6 338.77L461.7 339.72L462.75 340.71L463.76 341.73L464.73 342.78L465.66 343.87L466.54 345L467.37 346.15L468.15 347.33L468.88 348.54L469.56 349.78L470.19 351.05L470.76 352.34L471.28 353.66L471.74 354.99L472.15 356.35L472.5 357.74L472.78 359.14L473.01 360.56L473.17 361.99L473.27 363.45L473.3 364.91L473.27 366.38L473.17 367.84L473.01 369.27L472.78 370.69L472.5 372.09L472.15 373.47L471.74 374.83L471.28 376.17L470.76 377.49L470.19 378.78L469.56 380.05L468.88 381.29L468.15 382.5L467.37 383.68L466.54 384.83L465.66 385.95L464.73 387.04L463.76 388.1L462.75 389.12L461.7 390.11L460.6 391.06L459.47 391.97L458.29 392.84L457.08 393.67L455.84 394.46L454.56 395.21L453.24 395.91L451.89 396.57L450.52 397.18L449.11 397.75L447.67 398.27L446.21 398.73L444.73 399.15L443.21 399.51L441.68 399.83L440.12 400.08L438.54 400.29L436.95 400.43L436.64 400.45L436.64 400.55L336.14 400.55L336.14 400.52L335.76 400.51L334.53 400.4L333.33 400.21L332.14 399.95L330.98 399.63L329.84 399.23L328.73 398.77L327.65 398.25L326.59 397.67L325.57 397.02L324.58 396.32L323.63 395.56L322.71 394.75L321.83 393.89L320.99 392.98L320.19 392.02L319.43 391.02L318.72 389.97L318.06 388.88L317.44 387.75L316.88 386.58L316.37 385.38L315.91 384.15L315.5 382.88L315.16 381.58L314.87 380.26L314.65 378.91L314.48 377.53L314.38 376.13L314.35 374.72L314.38 373.3L314.48 371.9L314.65 370.53L314.87 369.18L315.16 367.85L315.5 366.56L315.91 365.29L316.37 364.05L316.88 362.85L317.44 361.68L318.06 360.55L318.72 359.46L319.43 358.42L320.19 357.41L320.99 356.45L321.83 355.54L322.71 354.68L323.63 353.87L324.58 353.11L325.57 352.41L326.59 351.77L327.65 351.18L328.73 350.66L329.84 350.2L330.98 349.81L332.14 349.48L333.33 349.22L334.53 349.04L335.76 348.92L337 348.88L337.04 348.89L337 347.61L337.04 346.3L337.14 345.02L337.32 343.75L337.56 342.5L337.87 341.28L338.24 340.08L338.67 338.91L339.17 337.77L339.72 336.66L340.32 335.59L340.98 334.54L341.69 333.54L342.46 332.57L343.27 331.65L344.13 330.76L345.03 329.92L345.97 329.13L346.96 328.38L347.99 327.68L349.05 327.03L350.15 326.44L351.28 325.9L352.44 325.42L353.63 324.99L354.86 324.63L356.1 324.33L357.38 324.09L358.67 323.92L359.98 323.81L361.32 323.78L362.65 323.81L363.97 323.92L365.26 324.09L366.53 324.33L366.74 324.38L366.77 324.17L367.03 322.93L367.34 321.71L367.7 320.51L368.12 319.33L368.59 318.16L369.11 317.02L369.67 315.9L370.29 314.81L370.94 313.74L371.65 312.69L372.4 311.67L373.19 310.68L374.02 309.72L374.89 308.78L375.8 307.88L376.75 307.01L377.74 306.17L378.76 305.36L379.82 304.59L380.91 303.86L382.03 303.16L383.19 302.5L384.37 301.88L385.58 301.3L386.82 300.76L388.09 300.26L389.38 299.8L390.7 299.39L392.04 299.02L393.4 298.69L394.78 298.42L396.19 298.19L397.61 298.01L399.05 297.88L400.5 297.8L401.97 297.78L403.44 297.8L404.89 297.88Z" id="c7jIFcDV0w"></path><path d="M271.05 501.84L271.05 414.27L319.54 414.27L319.54 501.84L271.05 501.84ZM280.16 483.35L310.43 483.35L310.43 426.28L280.16 426.28L280.16 483.35Z" id="b2lxnlb26"></path><path d="M457.99 431.03L457.99 445.08L323.94 445.08L323.94 431.03L386.07 431.03L386.07 412.93L400.13 412.93L400.13 431.03L457.99 431.03Z" id="f2uKmx4JRu"></path><path d="M561.4 414.27L561.4 490.28L513.44 490.28L513.44 476.72L518.44 476.72L518.44 476.77L553.57 476.77L553.57 422.94L470.58 422.94L470.58 476.77L506.54 476.77L506.54 476.72L511.54 476.72L511.54 490.28L462.48 490.28L462.48 414.27L561.4 414.27Z" id="b43DfYKgk"></path><path d="M531.94 491.97L491.94 491.97L491.94 499.38L531.94 499.38L531.94 491.97Z" id="fIgXWAJN0"></path></defs><g><g><g><use xlink:href="#c3dpjiIOnE" opacity="1" fill-opacity="0" stroke="#000000" stroke-width="1" stroke-opacity="1"></use></g></g><g><g><use xlink:href="#b35U8Bw6dm" opacity="1" fill-opacity="0" stroke="#000000" stroke-width="1" stroke-opacity="1"></use></g></g><g><use xlink:href="#c7jIFcDV0w" opacity="1" fill="#f5a623" fill-opacity="1"></use></g><g><use xlink:href="#b2lxnlb26" opacity="1" fill="#f5a623" fill-opacity="1"></use></g><g><use xlink:href="#f2uKmx4JRu" opacity="1" fill="#f5a623" fill-opacity="1"></use></g><g><use xlink:href="#b43DfYKgk" opacity="1" fill="#f5a623" fill-opacity="1"></use></g><g><use xlink:href="#fIgXWAJN0" opacity="1" fill="#f5a623" fill-opacity="1"></use></g></g></svg>