<svg width="37" height="37" xmlns="http://www.w3.org/2000/svg">

 <g>
  <title>background</title>
  <rect fill="none" id="canvas_background" height="39" width="39" y="-1" x="-1"/>
 </g>
 <g>
  <title>Layer 1</title>
  <path stroke="null" id="svg_1" fill="#482F21" d="m18.499859,9.289033c0.588763,0 1.066084,-0.477321 1.066084,-1.066084l0,-6.851368c0,-0.588763 -0.477321,-1.066084 -1.066084,-1.066084s-1.066084,0.477321 -1.066084,1.066084l0,6.851368c0,0.588834 0.477321,1.066084 1.066084,1.066084z"/>
  <path stroke="null" id="svg_2" fill="#843D2D" d="m18.499859,36.694506c0.588763,0 1.066084,-0.477321 1.066084,-1.066084l0,-6.851297c0,-0.588763 -0.477321,-1.066084 -1.066084,-1.066084s-1.066084,0.477321 -1.066084,1.066084l0,6.851297c0,0.588763 0.477321,1.066084 1.066084,1.066084z"/>
  <path stroke="null" id="svg_3" fill="#B37150" d="m23.637461,10.666058c0.368439,0 0.726714,-0.191184 0.924224,-0.533255l3.425613,-5.93347c0.294452,-0.509944 0.119686,-1.161961 -0.390187,-1.456271c-0.509873,-0.294524 -1.16189,-0.119828 -1.456271,0.390187l-3.425613,5.93347c-0.294452,0.509944 -0.119686,1.161961 0.390187,1.456271c0.167873,0.097014 0.351168,0.143069 0.532047,0.143069z"/>
  <path stroke="null" id="svg_4" fill="#663E2C" d="m9.934654,34.399937c0.368439,0 0.726785,-0.191184 0.924224,-0.533255l3.425613,-5.933327c0.294452,-0.509944 0.119757,-1.161961 -0.390187,-1.456271c-0.509873,-0.294452 -1.16189,-0.119757 -1.456271,0.390187l-3.425613,5.933327c-0.294452,0.509944 -0.119757,1.161961 0.390187,1.456271c0.167873,0.096943 0.351168,0.143069 0.532047,0.143069z"/>
  <path stroke="null" id="svg_5" fill="#B37150" d="m27.400952,14.427914c0.180879,0 0.364174,-0.046055 0.532047,-0.143069l5.933541,-3.425826c0.509944,-0.294452 0.684639,-0.946399 0.390187,-1.456271c-0.294452,-0.509944 -0.946327,-0.68471 -1.456271,-0.390187l-5.933541,3.425826c-0.509944,0.294452 -0.684639,0.946399 -0.390187,1.456271c0.19751,0.342071 0.555856,0.533255 0.924224,0.533255z"/>
  <path stroke="null" id="svg_6" fill="#663E2C" d="m3.667286,28.130509c0.180879,0 0.364174,-0.046055 0.532047,-0.143069l5.933399,-3.425542c0.509873,-0.294381 0.684639,-0.946327 0.390187,-1.456271c-0.294452,-0.509944 -0.946327,-0.684781 -1.456271,-0.390187l-5.933399,3.425542c-0.509873,0.294381 -0.684639,0.946327 -0.390187,1.456271c0.197439,0.341929 0.555785,0.533255 0.924224,0.533255z"/>
  <path stroke="null" id="svg_7" fill="#B37150" d="m28.776911,19.566227l6.85151,0c0.588763,0 1.066084,-0.477321 1.066084,-1.066084s-0.477321,-1.066084 -1.066084,-1.066084l-6.85151,0c-0.588763,0 -1.066084,0.477321 -1.066084,1.066084s0.47725,1.066084 1.066084,1.066084z"/>
  <path stroke="null" id="svg_8" fill="#663E2C" d="m1.37158,19.566227l6.851226,0c0.588763,0 1.066084,-0.477321 1.066084,-1.066084s-0.477321,-1.066084 -1.066084,-1.066084l-6.851226,0c-0.588763,0 -1.066084,0.477321 -1.066084,1.066084s0.477321,1.066084 1.066084,1.066084z"/>
  <path stroke="null" id="svg_9" fill="#843D2D" d="m33.332573,28.130651c0.368439,0 0.726785,-0.191184 0.924224,-0.533255c0.294452,-0.509944 0.119757,-1.161961 -0.390187,-1.456271l-5.933541,-3.425684c-0.509801,-0.294452 -1.161961,-0.119686 -1.456271,0.390187c-0.294452,0.509944 -0.119757,1.161961 0.390187,1.456271l5.933541,3.425684c0.167873,0.096943 0.351168,0.143069 0.532047,0.143069z"/>
  <path stroke="null" id="svg_10" fill="#482F21" d="m9.598766,14.427914c0.368439,0 0.726785,-0.191256 0.924224,-0.533255c0.294452,-0.509944 0.119757,-1.161961 -0.390187,-1.456271l-5.933399,-3.425684c-0.509873,-0.294595 -1.16189,-0.119686 -1.456271,0.390187c-0.294452,0.509873 -0.119757,1.161961 0.390187,1.456271l5.933399,3.425684c0.167873,0.097014 0.351168,0.143069 0.532047,0.143069z"/>
  <path stroke="null" id="svg_11" fill="#843D2D" d="m27.065064,34.40015c0.180879,0 0.364174,-0.046055 0.532047,-0.143069c0.509873,-0.294381 0.684639,-0.946399 0.390187,-1.456271l-3.425613,-5.93347c-0.294381,-0.509873 -0.946399,-0.684781 -1.456271,-0.390187c-0.509873,0.294381 -0.684639,0.946327 -0.390187,1.456271l3.425613,5.93347c0.197439,0.341929 0.555785,0.533255 0.924224,0.533255z"/>
  <path stroke="null" id="svg_12" fill="#482F21" d="m13.362257,10.666058c0.180879,0 0.364174,-0.046055 0.532047,-0.143069c0.509944,-0.294452 0.684639,-0.946399 0.390187,-1.456271l-3.425613,-5.933256c-0.294381,-0.510015 -0.946327,-0.684781 -1.456271,-0.390187c-0.509944,0.294452 -0.684639,0.946399 -0.390187,1.456271l3.425613,5.933327c0.197439,0.342 0.555785,0.533184 0.924224,0.533184z"/>
 </g>
</svg>