<?xml version="1.0" encoding="UTF-8" standalone="no"?>
<!DOCTYPE svg PUBLIC "-//W3C//DTD SVG 1.1//EN" "http://www.w3.org/Graphics/SVG/1.1/DTD/svg11.dtd">
<svg version="1.1" xmlns="http://www.w3.org/2000/svg" xmlns:xlink="http://www.w3.org/1999/xlink" preserveAspectRatio="xMidYMid meet" viewBox="0 0 640 640" width="64" height="64"><defs><path d="M482.43 245.41C482.43 159.39 415.87 89.65 333.76 89.65C251.65 89.65 185.09 159.39 185.09 245.41C185.09 331.43 251.65 401.16 333.76 532.32C415.87 401.16 482.43 331.43 482.43 245.41Z" id="b1QHX61tjk"></path><path d="M477.07 238.64C477.07 319.04 413 384.32 334.08 384.32C255.16 384.32 191.09 319.04 191.09 238.64C191.09 158.23 255.16 92.95 334.08 92.95C413 92.95 477.07 158.23 477.07 238.64Z" id="d22va4VcS4"></path><path d="M323.24 215.31L343.67 215.31L343.67 289.23L323.24 289.23L323.24 215.31Z" id="b4hdqguNuT"></path><path d="M291.33 320.24L372.55 320.24L372.55 348.47L291.33 348.47L291.33 320.24Z" id="aJG8yP3br"></path><path d="M342.78 177.11L355.33 177.11L355.33 326.65L342.78 326.65L342.78 177.11Z" id="h1DeQjTJZQ"></path><path d="M308.41 175.5L320.96 175.5L320.96 325.05L308.41 325.05L308.41 175.5Z" id="bR7i0iyGj"></path><path d="M272.14 361.26L282.54 361.26L382.05 361.26L392.45 361.26L392.45 354.73L392.45 338.78L392.45 332.25L384.29 332.25L369.6 313.47L367.43 311.56L364.36 311.56L363.55 311.56L363.55 175.84L363.55 169.31L356.15 169.31L344.23 169.31L336.83 169.31L336.83 175.84L336.83 178.08L327.77 178.08L327.77 175.84L327.77 169.31L308.46 169.31L301.06 169.31L301.06 175.84L301.06 311.56L300.22 311.56L297.15 311.56L294.98 313.47L280.31 332.25L272.14 332.25L272.14 338.77L272.14 354.73L272.14 361.18L272.14 361.2L272.14 361.2L272.14 361.26ZM346.7 323.17L346.7 318.09L346.7 184.61L346.7 178.02L353.68 178.02L353.68 184.61L353.68 318.09L353.68 323.17L353.68 324.26L346.7 324.26L346.7 323.17ZM354.91 328.8L356.15 328.8L356.15 322.44L362.31 322.44L367.46 330.81L370.1 335.15L320.36 335.15L294.49 335.12L302.26 322.44L308.46 322.44L308.46 328.72L308.46 328.74L308.46 328.74L308.46 328.8L314.63 328.8L354.91 328.8ZM310.92 323.17L310.92 318.09L310.92 178.02L317.91 178.02L317.91 184.61L317.91 318.09L317.91 323.17L317.91 324.26L314.62 324.26L310.92 324.26L310.92 323.17ZM326.97 272.25L337.63 268.94L337.63 277.67L329.37 280.23L326.97 280.96L326.97 272.25ZM337.63 251.87L329.37 254.43L326.97 255.16L326.97 246.45L337.63 243.14L337.63 251.87ZM329.37 228.63L326.97 229.36L326.97 220.65L337.63 217.35L337.63 226.07L329.37 228.63Z" id="a2tVxU4Nvz"></path><path d="M403.02 140.76C410.65 148.39 415.55 158.04 417.23 168.51C417.74 171.68 420.57 173.97 423.79 173.97C427.89 173.97 431.05 170.29 430.39 166.25C428.25 153.07 422.07 140.94 412.46 131.33C402.85 121.72 390.71 115.54 377.52 113.42C373.48 112.76 369.81 115.92 369.81 120.01C369.81 120.02 369.81 120.02 369.81 120.02C369.81 123.25 372.09 126.08 375.27 126.59C385.76 128.26 395.41 133.15 403.02 140.76Z" id="aavtqFQJ9b"></path><path d="M384.14 159.64C386.88 162.38 388.87 165.66 390.03 169.25C390.93 172.04 393.46 173.97 396.39 173.96C396.39 173.96 396.4 173.97 396.4 173.97C400.83 173.96 404.14 169.69 402.82 165.46C401.05 159.76 397.91 154.54 393.58 150.2C389.25 145.87 384.02 142.73 378.31 140.96C374.08 139.65 369.81 142.95 369.81 147.37C369.81 147.38 369.81 147.41 369.81 147.41C369.81 150.35 371.74 152.89 374.54 153.79C378.14 154.93 381.42 156.92 384.14 159.64Z" id="d1h1p0ed1"></path></defs><g><g><g><g><use xlink:href="#b1QHX61tjk" opacity="1" fill="#f61616" fill-opacity="1"></use><g><use xlink:href="#b1QHX61tjk" opacity="1" fill-opacity="0" stroke="#b4b4b4" stroke-width="1" stroke-opacity="1"></use></g></g><g><use xlink:href="#d22va4VcS4" opacity="1" fill="#ffffff" fill-opacity="1"></use></g></g><g><g><use xlink:href="#b4hdqguNuT" opacity="1" fill="#ffffff" fill-opacity="1"></use></g><g><use xlink:href="#aJG8yP3br" opacity="1" fill="#f5a623" fill-opacity="1"></use></g><g><use xlink:href="#h1DeQjTJZQ" opacity="1" fill="#f5a623" fill-opacity="1"></use></g><g><use xlink:href="#bR7i0iyGj" opacity="1" fill="#f5a623" fill-opacity="1"></use></g><g><g><use xlink:href="#a2tVxU4Nvz" opacity="1" fill="#4b4b4b" fill-opacity="1"></use><g><use xlink:href="#a2tVxU4Nvz" opacity="1" fill-opacity="0" stroke="#000000" stroke-width="1" stroke-opacity="0"></use></g></g><g><g><use xlink:href="#aavtqFQJ9b" opacity="1" fill="#4b4b4b" fill-opacity="1"></use><g><use xlink:href="#aavtqFQJ9b" opacity="1" fill-opacity="0" stroke="#000000" stroke-width="1" stroke-opacity="0"></use></g></g><g><use xlink:href="#d1h1p0ed1" opacity="1" fill="#4b4b4b" fill-opacity="1"></use><g><use xlink:href="#d1h1p0ed1" opacity="1" fill-opacity="0" stroke="#000000" stroke-width="1" stroke-opacity="0"></use></g></g></g></g></g></g></g></svg>